<?xml version="1.0" encoding="UTF-8"?>
<svg width="24px" height="24px" viewBox="0 0 24 24" version="1.1" xmlns="http://www.w3.org/2000/svg" xmlns:xlink="http://www.w3.org/1999/xlink">
    <title>icon / copy</title>
    <g id="icon-/-copy" stroke="none" stroke-width="1" fill="none" fill-rule="evenodd">
        <path d="M17.7777778,6.44444444 C19.434632,6.44444444 20.7777778,7.7875902 20.7777778,9.44444444 L20.7777778,19 C20.7777778,20.6568542 19.434632,22 17.7777778,22 L11.5555556,22 C9.89870131,22 8.55555556,20.6568542 8.55555556,19 L8.555,17.555 L6,17.5555556 C4.34314575,17.5555556 3,16.2124098 3,14.5555556 L3,5 C3,3.34314575 4.34314575,2 6,2 L12.2222222,2 C13.8790765,2 15.2222222,3.34314575 15.2222222,5 L15.222,6.444 L17.7777778,6.44444444 Z M17.7777778,8.44444444 L11.5555556,8.44444444 C11.0032708,8.44444444 10.5555556,8.89215969 10.5555556,9.44444444 L10.5555556,19 C10.5555556,19.5522847 11.0032708,20 11.5555556,20 L17.7777778,20 C18.3300625,20 18.7777778,19.5522847 18.7777778,19 L18.7777778,9.44444444 C18.7777778,8.89215969 18.3300625,8.44444444 17.7777778,8.44444444 Z M13.2222222,5 C13.2222222,4.44771525 12.774507,4 12.2222222,4 L6,4 C5.44771525,4 5,4.44771525 5,5 L5,14.5555556 C5,15.1078403 5.44771525,15.5555556 6,15.5555556 L8.555,15.555 L8.55555556,9.44444444 C8.55555556,7.7875902 9.89870131,6.44444444 11.5555556,6.44444444 L13.222,6.444 L13.2222222,5 Z" id="Combined-Shape" fill="#000000" fill-rule="nonzero"></path>
    </g>
</svg>