<?xml version="1.0" encoding="UTF-8"?>
<svg width="24px" height="24px" viewBox="0 0 24 24" version="1.1" xmlns="http://www.w3.org/2000/svg" xmlns:xlink="http://www.w3.org/1999/xlink">
    <title>icon / expand</title>
    <g id="icon-/-expand" stroke="none" stroke-width="1" fill="none" fill-rule="evenodd">
        <path d="M12,2 C17.5228475,2 22,6.4771525 22,12 C22,17.5228475 17.5228475,22 12,22 C6.4771525,22 2,17.5228475 2,12 C2,6.4771525 6.4771525,2 12,2 Z M12.00005,5.00005 C10.8954805,5.00005 10.00005,5.8954805 10.00005,7.00005 L10,9.99905 L7,10 C5.8954305,10 5,10.8954305 5,12 C5,13.1045695 5.8954305,14 7,14 L10,13.99905 L10.00005,17.00005 C10.00005,18.1046195 10.8954805,19.00005 12.00005,19.00005 C13.1046195,19.00005 14.00005,18.1046195 14.00005,17.00005 L14,13.99905 L17,14 C18.1045695,14 19,13.1045695 19,12 C19,10.8954305 18.1045695,10 17,10 L14,9.99905 L14.00005,7.00005 C14.00005,5.8954805 13.1046195,5.00005 12.00005,5.00005 Z" id="Combined-Shape" fill="#000000"></path>
    </g>
</svg>