<?xml version="1.0" encoding="UTF-8"?>
<svg width="24px" height="24px" viewBox="0 0 24 24" version="1.1" xmlns="http://www.w3.org/2000/svg" xmlns:xlink="http://www.w3.org/1999/xlink">
    <title>icon / file</title>
    <g id="icon-/-file" stroke="none" stroke-width="1" fill="none" fill-rule="evenodd">
        <g id="Icon-/-Context" transform="translate(3, 2)" fill="#000000">
            <path d="M12.3298368,4.4408921e-16 C12.9449036,8.8817842e-16 13.5257634,0.283006475 13.9048377,0.767371897 L17.5750009,5.45695387 C17.8503791,5.80882066 18,6.24276727 18,6.68958197 L18,18 C18,19.1045695 17.1045695,20 16,20 L2,20 C0.8954305,20 0,19.1045695 0,18 L0,2 C0,0.8954305 0.8954305,-6.66133815e-16 2,-8.8817842e-16 L12.3298368,4.4408921e-16 Z M14,15 L4,15 C3.44771525,15 3,15.4477153 3,16 C3,16.5522847 3.44771525,17 4,17 L14,17 C14.5522847,17 15,16.5522847 15,16 C15,15.4477153 14.5522847,15 14,15 Z M14,11 L4,11 C3.44771525,11 3,11.4477153 3,12 C3,12.5522847 3.44771525,13 4,13 L14,13 C14.5522847,13 15,12.5522847 15,12 C15,11.4477153 14.5522847,11 14,11 Z M11.4554391,2.81267587 C10.9031544,2.81267587 10.4554391,3.26039112 10.4554391,3.81267587 L10.4554391,7 C10.4554391,7.55228475 10.9031544,8 11.4554391,8 L14.049773,8 C14.2797441,8 14.5026877,7.92073615 14.6810445,7.77556196 C15.1093755,7.42692037 15.1739766,6.7970596 14.825335,6.36872855 L12.2310011,3.18140442 C12.0411007,2.94809827 11.7562612,2.81267587 11.4554391,2.81267587 Z" id="Combined-Shape"></path>
        </g>
    </g>
</svg>