<?xml version="1.0" encoding="UTF-8"?>
<svg width="24px" height="24px" viewBox="0 0 24 24" version="1.1" xmlns="http://www.w3.org/2000/svg" xmlns:xlink="http://www.w3.org/1999/xlink">
    <title>icon / hourglass</title>
    <g id="icon-/-hourglass" stroke="none" stroke-width="1" fill="none" fill-rule="evenodd">
        <g id="Icon-/-Context" transform="translate(4.8889, 4)">
            <path d="M12.4444444,0.888888889 C12.4444444,8 8.63492063,6.14908854 8.63492063,8 C8.63492063,9.85091146 12.4444444,8 12.4444444,15.1111111 C8.63492063,15.1111111 5.58730159,15.1111111 1.77777778,15.1111111 C1.77777778,8 5.58730159,9.87315538 5.58730159,8 C5.58730159,6.12684462 1.77777778,8 1.77777778,0.888888889 C5.58730159,0.888888889 8.63492063,0.888888889 12.4444444,0.888888889 Z" id="Path" fill="#FFFFFF" opacity="0"></path>
            <path d="M12.4444444,0.888888889 C12.4444444,8 8.63492063,6.14908854 8.63492063,8 C8.63492063,9.85091146 12.4444444,8 12.4444444,15.1111111 C8.63492063,15.1111111 5.58730159,15.1111111 1.77777778,15.1111111 C1.77777778,8 5.58730159,9.87315538 5.58730159,8 C5.58730159,6.12684462 1.77777778,8 1.77777778,0.888888889 C5.58730159,0.888888889 8.63492063,0.888888889 12.4444444,0.888888889 Z" id="Path" stroke="#000000" stroke-width="2" stroke-linecap="round" stroke-linejoin="round"></path>
            <line x1="0.444444444" y1="0.444444444" x2="13.7777778" y2="0.444444444" id="Line-8" stroke="#000000" stroke-width="2" stroke-linecap="round" stroke-linejoin="round"></line>
            <line x1="0.444444444" y1="15.5555556" x2="13.7777778" y2="15.5555556" id="Line-8-Copy" stroke="#000000" stroke-width="2" stroke-linecap="round" stroke-linejoin="round"></line>
        </g>
    </g>
</svg>