<?xml version="1.0" encoding="UTF-8"?>
<svg width="24px" height="24px" viewBox="0 0 24 24" version="1.1" xmlns="http://www.w3.org/2000/svg" xmlns:xlink="http://www.w3.org/1999/xlink">
    <title>icon / settings</title>
    <g id="icon-/-settings" stroke="none" stroke-width="1" fill="none" fill-rule="evenodd">
        <g id="Controls-/-Checked" transform="translate(4, 4)" fill="#000000">
            <path d="M8.59727319,11.5 C6.60999022,11.5 5,9.93188602 5,8 C5,6.06716418 6.60999022,4.5 8.59727319,4.5 C10.5824774,4.5 12.1924676,6.06716418 12.1924676,8 C12.1924676,9.93188602 10.5824774,11.5 8.59727319,11.5 L8.59727319,11.5 Z M14.7505909,6.22429009 C14.3364091,6.13178801 13.8611818,5.74523462 13.6958182,5.36469763 L13.3071364,4.65325891 C13.0706818,4.30957233 12.9787273,3.70417257 13.1015909,3.30784254 L13.5945909,1.72778677 C13.7174545,1.33220879 13.5219545,0.831343894 13.1603182,0.614001619 L12.3396818,0.123665416 C11.9780455,-0.0929248095 11.4564545,-0.0124555245 11.1821364,0.30340522 L10.1482273,1.48863506 C9.87313636,1.80374376 9.30518182,2.00754914 8.88559091,1.9413688 C8.88559091,1.9413688 8.87786364,1.9398647 8.47759091,1.9398647 L8.09045455,1.9398647 C7.68013636,2.0037889 7.11990909,1.79847941 6.84481818,1.48261867 L5.81477273,0.301149072 C5.54045455,-0.0139596233 5.01886364,-0.0951809576 4.65722727,0.121409267 L3.83659091,0.612497521 C3.47495455,0.829087746 3.27945455,1.32995264 3.40231818,1.72553062 L3.8845,3.27249622 C4.00813636,3.6680742 3.91309091,4.27196986 3.67509091,4.61415234 L3.25781818,5.37146608 C3.09168182,5.75200307 2.61645455,6.13855646 2.20227273,6.23030648 L0.753409091,6.55143157 C0.338454545,6.64393365 0,7.05756081 0,7.47118798 L0,8.52480918 C0,8.93768429 0.338454545,9.35131146 0.753409091,9.44381353 L2.21618182,9.76794682 C2.63036364,9.8604489 3.10790909,10.2462502 3.27559091,10.6252831 L3.67972727,11.3510108 C3.9185,11.6931933 4.01277273,12.2970889 3.88990909,12.6926669 L3.39845455,14.2719706 C3.27559091,14.6675486 3.47031818,15.1684135 3.83272727,15.3865078 L4.65336364,15.876844 C5.015,16.0941863 5.53659091,16.012965 5.81168182,15.6978563 L6.87340909,14.4787842 C7.14772727,14.1636755 7.70022727,13.9553578 8.09972727,14.0170259 L8.47759091,14.0170259 L8.8655,14.0170259 C9.27504545,13.9531017 9.83527273,14.1591632 10.1103636,14.475024 L11.1782727,15.6993604 C11.4533636,16.0144691 11.9741818,16.0949384 12.3365909,15.8783481 L13.1556818,15.3872599 C13.5180909,15.1706697 13.7128182,14.6690527 13.5899545,14.2734747 L13.0884545,12.6648411 C12.9655909,12.2692631 13.0590909,11.6646154 13.2963182,11.3216809 L13.6726364,10.6425803 C13.8418636,10.2627953 14.3186364,9.87699398 14.7328182,9.78449191 L16.2465909,9.44907788 C16.6615455,9.35657581 17,8.94294864 17,8.52932147 L17,7.47570028 C17,7.06207311 16.6615455,6.64844594 16.2465909,6.55594387 L14.7505909,6.22429009 Z" id="Fill-1"></path>
        </g>
    </g>
</svg>