<?xml version="1.0" encoding="UTF-8"?>
<svg width="24px" height="24px" viewBox="0 0 24 24" version="1.1" xmlns="http://www.w3.org/2000/svg" xmlns:xlink="http://www.w3.org/1999/xlink">
    <title>icon / tag</title>
    <g id="icon-/-tag" stroke="none" stroke-width="1" fill="none" fill-rule="evenodd">
        <g id="Icon-/-Context" transform="translate(3, 3)" fill="#000000" fill-rule="nonzero">
            <path d="M17.3677874,0.858706008 C17.3811881,0.952510736 17.3811881,1.04774399 17.3677874,1.14154872 L16.4249784,7.74121202 C16.3931785,7.96381086 16.2903603,8.15875424 16.1427252,8.30639114 L7.65685425,16.7921788 C6.87580566,17.5732274 5.60947573,17.5732274 4.82842712,16.7921788 L0.585786437,12.5495381 C-0.195262144,11.7684895 -0.195262147,10.5021596 0.585786437,9.72111098 L9.07106781,1.23582961 C9.22406465,1.08283276 9.42255765,0.983586262 9.63675324,0.952986896 L16.2364165,0.0101778684 C16.7831505,-0.0679269911 17.2896825,0.311971998 17.3677874,0.858706008 Z M11.1923882,3.35714996 C10.4113396,4.13819854 10.4113396,5.4045285 11.1923882,6.18557708 C11.9734368,6.96662568 13.2397667,6.96662567 14.0208153,6.18557708 C14.8018639,5.4045285 14.8018639,4.13819855 14.0208153,3.35714996 C13.2397667,2.57610138 11.9734367,2.57610138 11.1923882,3.35714996 Z" id="Combined-Shape"></path>
        </g>
    </g>
</svg>