<?xml version="1.0" encoding="UTF-8"?>
<svg width="24px" height="24px" viewBox="0 0 24 24" version="1.1" xmlns="http://www.w3.org/2000/svg" xmlns:xlink="http://www.w3.org/1999/xlink">
    <title>icon / time</title>
    <g id="icon-/-time" stroke="none" stroke-width="1" fill="none" fill-rule="evenodd">
        <g id="Icon-/-Context" transform="translate(2, 2)" fill="#000000">
            <path d="M10,0 C15.5228475,0 20,4.4771525 20,10 C20,15.5228475 15.5228475,20 10,20 C4.4771525,20 0,15.5228475 0,10 C0,4.4771525 4.4771525,0 10,0 Z M10.1153497,2 C9.2232194,2 8.5,2.67156579 8.5,3.49997857 L8.50029039,11.0112417 C8.50043559,11.0271062 8.50091957,11.0428808 8.50159715,11.0587003 C8.50203274,11.0690369 8.50246833,11.0793735 8.50314591,11.0896203 C8.50392028,11.102204 8.50503345,11.1146529 8.50619501,11.1271018 L8.51026049,11.1673696 C8.51127686,11.1757738 8.51253522,11.1842228 8.51369679,11.1926269 C8.51606832,11.20957 8.51848824,11.2264681 8.52148895,11.2432314 L8.52390888,11.255905 L8.5298619,11.286634 L8.5366377,11.3175652 C8.55865903,11.4123925 8.59021488,11.503984 8.63053087,11.591216 C8.64248531,11.6164734 8.65192302,11.6359781 8.66198992,11.6551233 C8.66741055,11.6655049 8.67331518,11.6756617 8.67897781,11.6859534 L8.69644968,11.7173228 C8.70738775,11.7360186 8.7189066,11.7543998 8.73071585,11.7727361 L8.82024105,11.8966632 L8.91976055,12.0085908 C8.9347641,12.0238711 8.95025163,12.0388367 8.96602955,12.0536675 C8.96927226,12.0567235 8.97241816,12.0598245 8.97570926,12.0628806 L9.01554126,12.098115 C9.02222026,12.1039574 9.02889926,12.1097998 9.03572345,12.1154625 C9.04646793,12.1244059 9.0574544,12.1331247 9.06848926,12.1417984 C9.07879815,12.1499778 9.08915544,12.1581123 9.09965793,12.1660221 C9.10827287,12.1724937 9.1170814,12.1788305 9.12588993,12.1851224 C9.13934473,12.1948298 9.15289632,12.2044024 9.1666899,12.2137054 C9.16998101,12.2159524 9.17312691,12.2183344 9.17641801,12.2204916 L12.9455996,14.7204708 C13.6715777,15.2019776 14.6804453,15.0458946 15.1989873,14.3717672 C15.7175293,13.6976397 15.5493927,12.7608272 14.8234146,12.2793204 L11.7306994,10.2279955 L11.7306994,3.49997857 C11.7306994,2.67156579 11.00748,2 10.1153497,2 Z" id="Combined-Shape"></path>
        </g>
    </g>
</svg>